<svg xmlns="http://www.w3.org/2000/svg" width="512" height="512" viewBox="0 0 512 512">
<g>
<path d="M 358.00 250.50 L 358.00 261.00 L 350.00 261.00 L 350.00 248.00 C350.00,236.33 350.21,234.79 352.00,233.00 C354.48,230.52 360.60,230.33 363.17,232.65 C364.87,234.19 365.13,234.19 366.83,232.65 C367.91,231.67 370.35,231.00 372.81,231.00 C379.34,231.00 380.47,233.56 380.49,248.44 L 380.50 260.50 L 372.00 261.11 L 372.00 250.56 C372.00,241.84 371.74,240.00 370.50,240.00 C369.26,240.00 369.00,241.84 369.00,250.56 L 369.00 261.12 L 361.50 260.50 L 361.22 250.25 C360.99,242.04 360.64,240.00 359.47,240.00 C358.27,240.00 358.00,241.94 358.00,250.50 ZM 248.78 250.25 L 248.50 260.50 L 244.96 260.80 C243.02,260.96 241.11,260.77 240.71,260.38 C240.32,259.99 240.00,254.99 240.00,249.28 C240.00,234.69 242.19,231.00 250.85,231.00 C259.59,231.00 261.00,233.58 261.00,249.51 L 261.00 261.11 L 252.50 260.50 L 252.22 250.25 C251.99,242.16 251.63,240.00 250.50,240.00 C249.37,240.00 249.01,242.16 248.78,250.25 ZM 414.78 250.25 L 414.50 260.50 L 410.96 260.80 C409.02,260.96 407.11,260.77 406.71,260.38 C406.32,259.99 406.00,254.53 406.00,248.26 C406.00,236.98 406.03,236.81 408.92,233.92 C411.36,231.49 412.65,231.01 416.67,231.03 C425.36,231.09 427.00,234.13 427.00,250.12 L 427.00 261.11 L 418.50 260.50 L 418.22 250.25 C417.99,242.16 417.63,240.00 416.50,240.00 C415.37,240.00 415.01,242.16 414.78,250.25 ZM 305.00 252.00 L 305.00 261.00 L 300.75 260.96 C294.89,260.91 290.21,258.67 288.91,255.30 C288.32,253.76 287.99,248.80 288.17,244.28 C288.59,233.80 290.01,232.08 298.86,231.28 L 305.00 230.72 L 305.00 240.00 L 301.42 240.00 C296.90,240.00 297.24,242.36 301.83,242.81 C304.58,243.09 305.00,243.50 305.00,246.00 C305.00,248.59 304.63,248.91 301.33,249.19 C296.05,249.64 295.71,252.00 300.92,252.00 ZM 401.81 256.25 C401.50,260.44 401.45,260.50 397.50,260.74 C392.74,261.02 387.57,258.94 386.08,256.15 C384.73,253.63 384.66,237.51 385.98,235.04 C387.24,232.69 392.12,231.00 397.65,231.00 L 402.00 231.00 L 402.00 240.00 L 397.92 240.00 C392.99,240.00 392.92,242.33 397.83,242.81 C400.60,243.09 401.00,243.50 401.00,246.06 C401.00,248.75 400.71,249.00 397.50,249.00 C395.06,249.00 394.00,249.45 394.00,250.50 C394.00,251.59 395.12,252.00 398.06,252.00 L 402.11 252.00 ZM 340.78 250.25 L 340.50 260.50 L 336.96 260.80 C335.02,260.96 333.11,260.77 332.71,260.38 C332.32,259.99 332.00,255.24 332.00,249.83 L 332.00 240.00 L 328.50 240.00 C325.02,240.00 325.00,239.98 325.00,235.50 L 325.00 231.00 L 347.00 231.00 L 347.00 235.50 C347.00,239.82 346.88,240.00 344.03,240.00 L 341.07 240.00 ZM 281.40 245.68 C278.32,253.28 275.42,259.91 274.94,260.41 C274.43,260.95 273.68,260.33 273.12,258.91 C272.60,257.59 269.88,250.97 267.08,244.22 C264.29,237.46 262.00,231.72 262.00,231.47 C262.00,231.21 264.23,231.00 266.96,231.00 C271.91,231.00 271.92,231.01 273.16,235.14 L 274.40 239.28 L 276.16 235.14 C277.85,231.15 278.09,231.00 282.46,231.00 C284.96,231.00 287.00,231.19 287.00,231.43 C287.00,231.66 284.48,238.07 281.40,245.68 ZM 444.78 250.25 L 444.50 260.50 L 440.96 260.80 C439.02,260.96 437.11,260.77 436.71,260.38 C436.32,259.99 436.00,255.27 436.00,249.90 L 436.00 240.13 L 432.75 239.81 C429.68,239.52 429.50,239.28 429.50,235.50 L 429.50 231.50 L 451.00 230.93 L 451.00 235.47 C451.00,239.83 450.89,240.00 448.03,240.00 L 445.07 240.00 ZM 319.33 258.96 C316.82,260.93 310.13,261.79 308.67,260.33 C308.30,259.97 308.00,257.94 308.00,255.83 C308.00,252.41 308.27,252.00 310.50,252.00 C313.39,252.00 313.74,249.91 311.50,246.00 C307.54,239.08 312.08,231.00 319.92,231.00 L 324.00 231.00 L 324.00 235.09 C324.00,238.35 323.59,239.29 322.00,239.71 C319.59,240.34 319.59,240.35 321.62,245.67 C323.69,251.10 322.81,256.22 319.33,258.96 ZM 464.12 258.18 C462.01,260.07 459.88,261.00 457.65,261.00 C453.44,261.00 453.00,260.51 453.00,255.83 C453.00,252.71 453.36,252.00 454.94,252.00 C457.73,252.00 458.20,250.61 456.50,247.35 C455.68,245.78 455.01,242.67 455.01,240.44 C455.00,235.01 458.95,231.00 464.30,231.00 C467.91,231.00 468.00,231.09 468.00,234.76 C468.00,237.45 467.42,238.88 465.98,239.78 C464.06,240.98 464.04,241.18 465.62,244.23 C466.53,245.99 467.27,249.21 467.27,251.40 C467.27,254.59 466.65,255.92 464.12,258.18 ZM 235.00 231.00 L 235.00 261.00 L 231.17 261.00 C229.06,261.00 227.03,260.70 226.67,260.33 C226.30,259.97 226.00,253.22 226.00,245.33 L 226.00 231.00 ZM 300.75 267.13 C298.41,267.20 295.28,267.33 293.80,267.42 C291.69,267.55 291.33,267.31 292.17,266.30 C292.83,265.50 295.53,265.00 299.12,265.00 C305.80,265.00 307.28,266.93 300.75,267.13 ZM 401.00 266.20 C401.00,267.13 399.16,267.50 394.50,267.50 C386.18,267.50 386.45,265.61 394.83,265.20 C399.37,264.98 401.00,265.25 401.00,266.20 ZM 318.32 265.38 C318.71,266.41 317.89,266.77 315.17,266.77 C310.90,266.77 309.00,266.20 309.00,264.92 C309.00,263.39 317.72,263.83 318.32,265.38 ZM 462.50 265.50 C462.50,266.05 460.36,266.64 457.75,266.80 C453.92,267.05 453.00,266.80 453.00,265.50 C453.00,264.20 453.92,263.95 457.75,264.20 C460.36,264.36 462.50,264.95 462.50,265.50 ZM 442.75 267.13 C437.62,267.66 436.00,267.46 436.00,266.30 C436.00,265.45 437.39,265.00 440.00,265.00 C442.20,265.00 444.00,265.45 444.00,266.00 C444.00,266.55 443.44,267.06 442.75,267.13 ZM 340.00 265.88 C340.00,267.01 337.16,267.67 334.25,267.21 C330.47,266.62 331.75,265.00 336.00,265.00 C338.20,265.00 340.00,265.40 340.00,265.88 ZM 380.00 265.88 C380.00,267.01 377.16,267.67 374.25,267.21 C370.47,266.62 371.75,265.00 376.00,265.00 C378.20,265.00 380.00,265.40 380.00,265.88 ZM 414.00 265.89 C414.00,266.39 412.20,266.96 410.00,267.17 C407.22,267.44 406.00,267.16 406.00,266.28 C406.00,265.45 407.42,265.00 410.00,265.00 C412.20,265.00 414.00,265.40 414.00,265.89 ZM 359.00 266.00 C359.00,266.55 356.98,267.00 354.50,267.00 C352.02,267.00 350.00,266.55 350.00,266.00 C350.00,265.45 352.02,265.00 354.50,265.00 C356.98,265.00 359.00,265.45 359.00,266.00 ZM 370.00 266.00 C370.00,266.55 367.98,267.00 365.50,267.00 C363.02,267.00 361.00,266.55 361.00,266.00 C361.00,265.45 363.02,265.00 365.50,265.00 C367.98,265.00 370.00,265.45 370.00,266.00 ZM 426.00 266.00 C426.00,266.55 424.20,267.00 422.00,267.00 C419.80,267.00 418.00,266.55 418.00,266.00 C418.00,265.45 419.80,265.00 422.00,265.00 C424.20,265.00 426.00,265.45 426.00,266.00 ZM 261.00 266.00 C261.00,266.55 259.20,267.00 257.00,267.00 C254.80,267.00 253.00,266.55 253.00,266.00 C253.00,265.45 254.80,265.00 257.00,265.00 C259.20,265.00 261.00,265.45 261.00,266.00 ZM 248.00 266.00 C248.00,266.55 246.20,267.00 244.00,267.00 C241.80,267.00 240.00,266.55 240.00,266.00 C240.00,265.45 241.80,265.00 244.00,265.00 C246.20,265.00 248.00,265.45 248.00,266.00 ZM 234.00 266.00 C234.00,266.55 232.43,267.00 230.50,267.00 C228.57,267.00 227.00,266.55 227.00,266.00 C227.00,265.45 228.57,265.00 230.50,265.00 C232.43,265.00 234.00,265.45 234.00,266.00 Z" fill="rgb(46,43,44)"/>
<path d="M 72.07 239.73 L 71.50 260.50 L 58.95 260.78 C52.04,260.93 46.08,260.74 45.70,260.36 C45.31,259.98 45.00,245.58 45.00,228.35 C45.00,188.71 45.21,187.99 56.50,188.05 C58.70,188.06 61.35,188.71 62.39,189.49 C63.67,190.46 64.83,190.63 65.99,190.00 C67.41,189.24 67.91,189.74 68.86,192.91 C69.49,195.02 70.29,198.82 70.64,201.37 C70.99,203.92 71.60,206.00 72.01,206.00 C72.41,206.00 74.63,203.95 76.94,201.45 C79.25,198.95 82.23,196.48 83.57,195.97 C84.91,195.47 86.00,194.42 86.00,193.65 C86.00,192.87 87.35,191.68 89.00,191.00 C90.65,190.32 92.00,189.41 92.00,188.99 C92.00,187.38 99.08,186.89 101.92,188.31 C103.49,189.09 106.73,189.61 109.13,189.47 C114.26,189.17 115.50,189.69 114.01,191.48 C113.42,192.20 113.06,193.24 113.21,193.79 C113.37,194.34 111.36,197.29 108.75,200.33 C106.14,203.38 104.00,206.33 104.00,206.89 C104.00,207.92 111.25,220.03 127.13,245.50 C131.93,253.20 135.52,259.85 135.10,260.28 C134.69,260.70 127.41,260.93 118.92,260.78 L 103.50 260.50 L 94.85 243.50 C90.09,234.15 85.75,226.50 85.20,226.50 C84.65,226.50 81.47,229.48 78.13,233.11 ZM 195.12 260.58 C186.29,263.26 166.25,262.02 156.86,258.20 C149.68,255.29 142.56,245.40 141.37,236.65 L 140.77 232.32 L 150.04 231.66 C150.38,231.63 150.71,231.61 151.04,231.59 C161.38,230.85 164.36,230.64 165.64,232.01 C166.20,232.61 166.43,233.51 166.82,234.79 C168.62,240.79 172.95,244.25 179.31,244.78 C188.43,245.53 194.56,240.24 192.09,233.74 C190.62,229.86 187.42,228.22 175.15,225.00 C158.19,220.55 151.60,216.73 146.98,208.66 C145.01,205.23 144.02,202.11 144.01,199.34 C144.00,195.77 144.62,194.54 148.46,190.59 C151.45,187.52 153.76,186.00 155.46,186.00 C156.86,186.00 158.00,186.45 158.00,187.00 C158.00,187.55 159.57,188.00 161.50,188.00 C163.43,188.00 165.00,187.57 165.00,187.04 C165.00,185.57 168.65,183.93 170.42,184.61 C171.70,185.10 171.44,185.72 169.02,187.98 L 166.06 190.75 L 167.74 195.01 C169.73,200.07 171.15,200.79 186.76,204.57 C208.65,209.88 217.04,217.07 217.84,231.18 C218.66,245.76 210.92,255.78 195.12,260.58 ZM 205.85 199.36 C195.08,200.48 191.19,200.20 190.62,198.25 C189.03,192.82 188.83,189.00 190.14,188.91 C190.89,188.86 195.54,188.80 200.48,188.79 C209.42,188.77 209.47,188.78 210.69,191.63 C213.25,197.65 212.63,198.65 205.85,199.36 ZM 300.75 267.13 C303.28,267.05 304.60,266.72 304.90,266.33 C304.90,266.59 304.87,266.89 304.82,267.25 C304.55,269.16 303.74,269.58 299.50,270.00 C293.63,270.59 289.00,270.19 289.00,269.09 C289.00,267.30 291.16,265.93 294.65,265.33 C293.39,265.56 292.51,265.89 292.17,266.30 C291.33,267.31 291.69,267.55 293.80,267.42 C295.28,267.33 298.41,267.20 300.75,267.13 ZM 401.00 267.50 C401.00,269.96 400.87,270.00 393.50,269.89 C389.38,269.83 386.00,269.41 386.00,268.96 C386.00,266.51 389.47,265.00 395.07,265.00 C398.11,265.00 399.60,265.03 400.32,265.43 C399.47,265.12 397.75,265.06 394.83,265.20 C386.45,265.61 386.18,267.50 394.50,267.50 C398.72,267.50 400.62,267.20 400.95,266.45 C400.99,266.74 401.00,267.09 401.00,267.50 ZM 462.50 265.50 C462.50,264.95 460.36,264.36 457.75,264.20 C455.98,264.08 454.83,264.07 454.11,264.23 C454.75,264.04 455.77,264.00 457.35,264.00 C461.42,264.00 463.39,265.12 465.25,268.50 C465.81,269.53 454.52,270.19 453.52,269.19 C453.23,268.90 453.00,267.62 453.00,266.33 C453.00,266.13 453.00,265.94 453.02,265.77 C453.15,266.83 454.21,267.03 457.75,266.80 C460.36,266.64 462.50,266.05 462.50,265.50 ZM 318.32 265.38 C318.02,264.62 315.80,264.13 313.59,264.00 C316.52,264.03 318.25,264.62 319.51,266.01 C320.50,267.11 321.00,268.33 320.62,268.72 C319.90,269.44 311.85,269.78 310.02,269.17 C309.46,268.99 309.00,267.75 309.00,266.42 C309.00,265.98 309.02,265.62 309.07,265.33 C309.46,266.33 311.39,266.77 315.17,266.77 C317.89,266.77 318.71,266.41 318.32,265.38 ZM 132.00 264.75 C132.00,265.16 126.37,265.52 119.50,265.54 C112.62,265.57 107.00,265.23 107.00,264.79 C107.00,264.36 112.62,264.00 119.50,264.00 C126.38,264.00 132.00,264.34 132.00,264.75 ZM 248.00 266.00 C248.00,265.46 246.28,265.02 244.14,265.00 C244.26,265.00 244.38,265.00 244.50,265.00 C249.00,265.00 249.53,265.46 248.39,268.42 C247.98,269.49 246.52,270.00 243.89,270.00 C240.41,270.00 240.00,269.74 240.00,267.50 C240.00,266.97 240.02,266.55 240.10,266.22 C240.51,266.67 242.11,267.00 244.00,267.00 C246.20,267.00 248.00,266.55 248.00,266.00 ZM 69.00 265.50 C67.73,267.03 65.79,267.46 64.76,266.43 C64.44,266.11 61.11,265.50 57.34,265.06 L 50.50 264.26 L 60.37 264.13 C69.04,264.02 70.09,264.18 69.00,265.50 ZM 261.00 267.40 C261.00,269.46 260.52,269.80 257.60,269.80 C254.05,269.80 252.00,268.52 252.00,266.30 C252.00,265.43 253.47,265.00 256.50,265.00 C256.62,265.00 256.74,265.00 256.86,265.00 C254.72,265.02 253.00,265.46 253.00,266.00 C253.00,266.55 254.80,267.00 257.00,267.00 C258.90,267.00 260.50,266.66 260.90,266.22 C260.98,266.53 261.00,266.92 261.00,267.40 ZM 358.39 268.42 C358.01,269.41 356.58,270.00 354.56,270.00 C350.86,270.00 350.00,269.40 350.00,266.83 C350.00,266.59 350.02,266.37 350.07,266.18 C350.46,266.65 352.30,267.00 354.50,267.00 C356.63,267.00 358.43,266.67 358.89,266.22 C358.96,266.73 358.77,267.43 358.39,268.42 ZM 369.82 267.24 C369.55,269.10 368.78,269.53 365.25,269.78 C361.29,270.05 361.00,269.90 361.00,267.54 C361.00,266.98 361.02,266.55 361.10,266.21 C361.55,266.66 363.35,267.00 365.50,267.00 C367.63,267.00 369.43,266.67 369.89,266.22 C369.91,266.50 369.88,266.83 369.82,267.24 ZM 442.75 267.13 C443.44,267.06 444.00,266.55 444.00,266.00 C444.00,265.46 442.28,265.02 440.14,265.00 C440.26,265.00 440.38,265.00 440.50,265.00 C445.00,265.00 445.53,265.46 444.39,268.42 C443.98,269.49 442.52,270.00 439.89,270.00 C436.41,270.00 436.00,269.74 436.00,267.50 C436.00,267.15 436.01,266.84 436.04,266.58 C436.31,267.49 438.07,267.61 442.75,267.13 ZM 234.00 266.00 C234.00,265.47 232.52,265.03 230.67,265.00 C230.78,265.00 230.89,265.00 231.00,265.00 C235.02,265.00 235.51,265.50 234.39,268.42 C233.28,271.31 227.00,270.03 227.00,266.92 C227.00,266.64 227.02,266.41 227.07,266.21 C227.41,266.66 228.82,267.00 230.50,267.00 C232.43,267.00 234.00,266.55 234.00,266.00 ZM 340.00 267.50 C340.00,269.75 339.60,270.00 336.00,270.00 C332.40,270.00 332.00,269.75 332.00,267.50 C332.00,267.05 332.02,266.67 332.07,266.37 C332.28,266.70 332.98,267.01 334.25,267.21 C336.84,267.62 339.37,267.14 339.90,266.24 C339.98,266.56 340.00,266.98 340.00,267.50 ZM 426.00 266.00 C426.00,265.46 424.29,265.02 422.17,265.00 C422.28,265.00 422.39,265.00 422.50,265.00 C427.09,265.00 427.64,265.44 426.10,267.88 C425.20,269.29 421.46,270.06 419.25,269.28 C418.56,269.03 418.00,267.97 418.00,266.92 C418.00,266.64 418.02,266.40 418.08,266.20 C418.44,266.65 420.07,267.00 422.00,267.00 C424.20,267.00 426.00,266.55 426.00,266.00 ZM 380.00 267.54 C380.00,269.88 379.68,270.06 376.00,269.85 C372.56,269.64 372.00,269.29 372.00,267.30 C372.00,266.93 372.02,266.62 372.07,266.36 C372.26,266.69 372.96,267.01 374.25,267.21 C376.84,267.62 379.37,267.14 379.90,266.24 C379.98,266.57 380.00,267.00 380.00,267.54 ZM 414.00 267.25 C413.99,269.11 413.40,269.53 410.58,269.67 C406.72,269.87 406.00,269.42 406.00,266.83 C406.00,266.70 406.01,266.58 406.02,266.46 C406.19,267.20 407.43,267.42 410.00,267.17 C411.86,266.99 413.44,266.55 413.88,266.12 C413.97,266.42 414.00,266.79 414.00,267.25 ZM 184.00 264.00 C180.73,265.05 178.94,265.05 176.50,264.00 C175.10,263.40 176.29,263.15 180.50,263.17 C184.95,263.19 185.85,263.41 184.00,264.00 ZM 276.00 266.50 C276.00,267.33 275.33,268.00 274.50,268.00 C273.67,268.00 273.00,267.33 273.00,266.50 C273.00,265.67 273.67,265.00 274.50,265.00 C275.33,265.00 276.00,265.67 276.00,266.50 ZM 304.83 265.92 C304.32,265.45 302.36,265.01 299.22,265.00 C303.26,265.00 304.54,265.09 304.83,265.92 ZM 365.46 265.00 C363.71,265.00 362.19,265.23 361.46,265.56 C361.99,265.07 363.11,265.00 365.46,265.00 ZM 336.00 265.00 C334.19,265.00 332.92,265.29 332.35,265.68 C332.80,265.09 333.81,265.00 336.00,265.00 ZM 376.00 265.00 C374.19,265.00 372.92,265.29 372.35,265.68 C372.81,265.11 373.82,265.00 376.00,265.00 ZM 358.48 265.53 C357.72,265.22 356.22,265.00 354.50,265.00 C356.65,265.00 357.89,265.10 358.48,265.53 ZM 354.50 265.00 C352.78,265.00 351.29,265.22 350.53,265.53 C351.12,265.12 352.29,265.00 354.50,265.00 ZM 240.52 265.51 C241.00,265.12 241.91,265.02 243.63,265.00 C242.30,265.04 241.15,265.23 240.52,265.51 ZM 260.47 265.50 C259.84,265.23 258.71,265.04 257.40,265.01 C259.08,265.03 259.99,265.13 260.47,265.50 ZM 439.49 265.01 C437.97,265.04 436.92,265.25 436.40,265.62 C436.83,265.15 437.71,265.03 439.49,265.01 ZM 379.34 265.40 C378.62,265.16 377.39,265.00 376.00,265.00 C377.79,265.00 378.79,265.06 379.34,265.40 ZM 339.34 265.40 C338.62,265.16 337.39,265.00 336.00,265.00 C337.78,265.00 338.78,265.06 339.34,265.40 ZM 413.31 265.40 C412.59,265.16 411.37,265.00 410.00,265.00 C411.75,265.00 412.75,265.07 413.31,265.40 ZM 410.00 265.00 C408.23,265.00 407.00,265.21 406.41,265.62 C406.92,265.14 407.98,265.00 410.00,265.00 ZM 421.37 265.01 C420.22,265.06 419.22,265.23 418.62,265.47 C419.11,265.17 419.96,265.05 421.37,265.01 ZM 229.73 265.02 C228.92,265.08 228.22,265.21 227.73,265.39 C228.15,265.18 228.78,265.07 229.73,265.02 ZM 299.06 265.00 C297.92,265.00 296.86,265.06 295.93,265.15 C296.85,265.05 297.84,265.00 298.90,265.00 Z" fill="rgb(104,177,216)"/>
<path d="M 166.16 286.25 C163.94,288.86 163.40,288.99 155.66,288.88 C142.88,288.70 141.74,288.11 143.04,282.34 C144.18,277.29 148.44,271.38 153.03,268.48 C159.88,264.16 167.78,262.73 182.52,263.16 C195.15,263.53 195.90,263.68 202.57,267.02 C207.72,269.61 210.46,271.79 213.24,275.50 C217.13,280.68 218.19,285.86 215.75,287.70 C215.06,288.22 210.14,288.74 204.82,288.87 L 195.14 289.09 L 193.55 285.75 C191.30,281.00 187.35,279.00 180.23,279.00 C173.89,279.00 171.11,280.43 166.16,286.25 ZM 112.54 221.87 C106.74,212.34 104.00,207.52 104.00,206.89 C104.00,206.33 106.14,203.38 108.75,200.33 C111.36,197.29 113.37,194.34 113.21,193.79 C113.06,193.24 113.42,192.20 114.01,191.48 C115.50,189.69 114.26,189.17 109.13,189.47 C106.73,189.61 103.49,189.09 101.92,188.31 C99.08,186.89 92.00,187.38 92.00,188.99 C92.00,189.41 90.65,190.32 89.00,191.00 C87.35,191.68 86.00,192.87 86.00,193.65 C86.00,194.42 84.91,195.47 83.57,195.97 C82.23,196.48 79.25,198.95 76.94,201.45 C74.63,203.95 72.41,206.00 72.01,206.00 C71.60,206.00 70.99,203.92 70.64,201.37 C70.29,198.82 69.49,195.02 68.86,192.91 C67.91,189.74 67.41,189.24 65.99,190.00 C64.83,190.63 63.67,190.46 62.39,189.49 C61.35,188.71 58.70,188.06 56.50,188.05 C45.85,188.00 45.06,188.63 45.00,221.92 C45.00,220.41 45.00,218.88 45.00,217.33 L 45.00 175.00 L 72.00 175.00 L 72.05 205.50 L 76.27 200.99 C78.60,198.51 84.68,191.64 89.78,185.74 L 99.06 175.00 L 134.23 175.00 L 119.87 190.06 C111.96,198.34 105.11,205.67 104.64,206.34 C104.07,207.16 105.52,210.29 112.54,221.87 ZM 205.85 199.36 C212.63,198.65 213.25,197.65 210.69,191.63 C209.47,188.78 209.42,188.77 200.48,188.79 C195.54,188.80 190.89,188.86 190.14,188.91 C188.83,189.00 189.03,192.82 190.62,198.25 C190.68,198.44 190.77,198.62 190.89,198.78 C190.39,198.24 190.04,197.49 189.56,196.49 C188.65,194.56 186.81,192.27 185.49,191.40 C178.13,186.58 166.84,190.51 168.43,196.61 C168.19,196.13 167.97,195.60 167.74,195.01 L 166.06 190.75 L 169.02 187.98 C171.44,185.72 171.70,185.10 170.42,184.61 C168.65,183.93 165.00,185.57 165.00,187.04 C165.00,187.57 163.43,188.00 161.50,188.00 C159.57,188.00 158.00,187.55 158.00,187.00 C158.00,186.45 156.86,186.00 155.46,186.00 C153.76,186.00 151.45,187.52 148.46,190.59 C144.84,194.31 144.08,195.62 144.01,198.75 C144.01,198.58 144.01,198.40 144.01,198.22 C143.98,181.34 159.48,171.67 183.94,173.30 C202.49,174.54 211.73,180.96 214.84,194.77 L 215.72 198.72 L 206.71 199.36 C205.63,199.44 204.63,199.51 203.70,199.57 C204.38,199.51 205.10,199.44 205.85,199.36 ZM 132.00 264.75 C132.00,264.34 126.48,264.01 119.68,264.00 C128.66,264.00 136.00,264.25 136.00,264.55 C136.00,265.77 123.71,282.90 120.90,285.60 C117.97,288.41 117.52,288.51 106.18,288.83 C99.75,289.01 94.15,288.82 93.74,288.41 C92.26,286.93 93.08,284.32 98.18,274.25 L 103.37 264.00 L 119.50 264.00 C112.62,264.00 107.00,264.36 107.00,264.79 C107.00,265.23 112.62,265.57 119.50,265.54 C126.37,265.52 132.00,265.16 132.00,264.75 ZM 72.42 287.75 C72.48,289.16 71.63,289.51 68.00,289.57 C57.08,289.74 48.14,288.87 47.02,287.53 C46.39,286.76 45.61,281.16 45.28,275.07 L 44.70 264.00 L 72.00 264.00 L 72.17 275.00 C72.26,281.05 72.37,286.79 72.42,287.75 ZM 466.81 272.27 C466.52,275.28 466.22,275.52 462.38,275.80 C458.93,276.05 458.17,275.77 457.72,274.05 C457.40,272.81 456.36,272.00 455.09,272.00 C453.32,272.00 453.00,271.39 453.00,268.00 L 453.00 264.00 L 457.55 264.00 C463.47,264.00 467.28,267.40 466.81,272.27 ZM 406.00 266.28 L 406.00 263.89 L 414.50 264.50 L 414.35 269.88 C414.26,273.17 413.68,275.59 412.85,276.11 C411.24,277.14 407.60,277.27 406.67,276.33 C406.30,275.97 406.00,273.02 406.00,269.78 L 406.00 266.28 ZM 247.07 275.96 C246.00,276.53 244.54,276.96 243.82,276.92 C240.61,276.73 240.00,275.69 240.00,270.42 L 240.00 265.00 L 249.00 265.00 L 249.00 269.96 C249.00,273.85 248.58,275.15 247.07,275.96 ZM 332.00 264.00 L 335.94 264.00 C338.11,264.00 340.17,264.47 340.53,265.05 C340.88,265.62 340.87,268.28 340.51,270.95 C339.81,276.02 338.74,276.91 334.25,276.21 C332.21,275.89 332.00,275.31 332.00,269.93 L 332.00 264.00 ZM 380.00 267.54 L 380.00 269.84 C380.00,274.34 379.62,275.93 378.42,276.39 C373.85,278.14 372.01,276.36 371.73,269.93 L 371.50 264.50 L 380.00 263.89 L 380.00 267.54 ZM 252.00 266.30 L 252.00 265.00 L 261.00 265.00 L 261.00 270.39 C261.00,274.39 260.59,275.94 259.42,276.39 C254.80,278.17 252.00,275.54 252.00,269.43 L 252.00 266.30 ZM 444.39 274.42 C443.98,275.49 442.52,276.00 439.89,276.00 L 436.00 276.00 L 436.00 265.00 L 445.00 265.00 L 445.00 268.92 C445.00,271.07 444.73,273.55 444.39,274.42 ZM 401.00 267.50 C401.00,267.09 400.99,266.74 400.95,266.45 C400.98,266.37 401.00,266.29 401.00,266.20 C401.00,265.86 400.79,265.61 400.32,265.43 C399.61,265.04 398.16,265.00 395.22,265.00 L 401.00 265.00 L 401.00 268.44 C401.00,271.69 400.80,271.90 397.25,272.19 C394.49,272.42 393.53,272.94 393.62,274.16 C393.70,275.22 392.82,275.94 391.12,276.18 C386.09,276.90 385.00,276.15 385.00,271.98 C385.00,266.98 387.43,265.14 394.41,265.01 C389.19,265.12 386.00,266.61 386.00,268.96 C386.00,269.41 389.38,269.83 393.50,269.89 C400.87,270.00 401.00,269.96 401.00,267.50 ZM 321.80 274.80 C321.14,275.46 318.89,276.00 316.80,276.00 C313.67,276.00 313.00,275.65 313.00,274.00 C313.00,272.67 312.33,272.00 311.00,272.00 C309.33,272.00 309.00,271.33 309.00,268.00 L 309.00 266.42 C309.00,267.75 309.46,268.99 310.02,269.17 C311.85,269.78 319.90,269.44 320.62,268.72 C320.94,268.39 320.64,267.47 319.93,266.52 C320.09,266.70 320.25,266.88 320.41,267.08 C323.23,270.42 323.68,272.92 321.80,274.80 ZM 304.83 265.92 C304.54,265.09 303.27,265.00 299.23,265.00 L 305.00 265.00 L 305.00 268.50 C305.00,271.92 304.90,272.00 301.00,272.00 C297.75,272.00 297.00,272.35 297.00,273.88 C297.00,275.82 294.09,276.91 290.75,276.22 C289.46,275.95 289.00,274.87 289.00,272.08 C289.00,271.10 289.07,270.24 289.24,269.49 C290.26,270.28 294.41,270.51 299.50,270.00 C303.74,269.58 304.55,269.16 304.82,267.25 C304.87,266.89 304.90,266.59 304.90,266.33 C305.00,266.20 304.97,266.06 304.83,265.92 ZM 424.89 276.09 C423.38,277.04 421.23,277.14 419.25,276.34 C418.47,276.02 418.00,273.81 418.00,270.42 L 418.00 265.00 L 422.50 265.00 C422.39,265.00 422.28,265.00 422.17,265.00 L 422.17 265.00 C422.11,265.00 422.06,265.00 422.00,265.00 C421.79,265.00 421.58,265.00 421.37,265.01 C419.96,265.05 419.11,265.17 418.62,265.47 C418.23,265.62 418.00,265.80 418.00,266.00 C418.00,266.07 418.03,266.13 418.08,266.20 C418.02,266.40 418.00,266.64 418.00,266.92 C418.00,267.97 418.56,269.03 419.25,269.28 C421.46,270.06 425.20,269.29 426.10,267.88 C427.63,265.46 427.10,265.01 422.63,265.00 L 427.25 265.00 L 426.76 270.11 C426.49,272.92 425.65,275.61 424.89,276.09 ZM 234.23 274.57 C231.90,277.98 227.23,276.76 226.44,272.53 C225.76,268.91 225.78,267.08 227.03,266.14 C227.04,266.16 227.06,266.18 227.07,266.21 C227.02,266.41 227.00,266.64 227.00,266.92 C227.00,270.03 233.28,271.31 234.39,268.42 C235.33,265.98 235.14,265.23 232.72,265.05 L 235.00 264.89 L 234.98 269.19 C234.98,271.56 234.64,273.98 234.23,274.57 ZM 457.35 264.00 C455.77,264.00 454.75,264.04 454.11,264.23 C453.27,264.41 453.00,264.80 453.00,265.50 C453.00,265.60 453.01,265.69 453.02,265.77 C453.00,265.94 453.00,266.13 453.00,266.33 C453.00,267.62 453.23,268.90 453.52,269.19 C454.52,270.19 465.81,269.53 465.25,268.50 C463.39,265.12 461.42,264.00 457.35,264.00 ZM 368.49 275.79 C367.98,276.41 363.45,276.79 362.25,276.32 C361.46,276.02 361.00,273.82 361.00,270.42 L 361.00 265.00 L 365.50 265.00 L 365.45 265.00 C363.11,265.00 361.99,265.07 361.46,265.56 C361.17,265.69 361.00,265.84 361.00,266.00 C361.00,266.07 361.04,266.14 361.10,266.21 C361.02,266.55 361.00,266.98 361.00,267.54 C361.00,269.90 361.29,270.05 365.25,269.78 C368.40,269.56 369.35,269.20 369.71,267.80 L 369.40 270.25 C369.03,273.14 368.62,275.63 368.49,275.79 ZM 358.39 268.42 C358.46,268.24 358.52,268.08 358.58,267.92 L 358.31 270.25 C357.99,273.14 357.67,275.58 357.61,275.67 C357.22,276.26 352.28,276.79 351.25,276.36 C350.47,276.03 350.00,273.80 350.00,270.42 L 350.00 265.00 L 354.45 265.00 C352.76,265.00 351.28,265.22 350.53,265.53 C350.19,265.67 350.00,265.83 350.00,266.00 C350.00,266.06 350.03,266.12 350.07,266.18 C350.02,266.37 350.00,266.59 350.00,266.83 C350.00,269.40 350.86,270.00 354.56,270.00 C356.58,270.00 358.01,269.41 358.39,268.42 ZM 276.00 266.50 C276.00,266.36 275.98,266.23 275.95,266.10 C276.28,266.59 276.60,267.27 276.90,268.15 C278.54,272.85 278.25,274.70 275.75,275.37 C272.86,276.14 272.77,276.14 271.08,275.07 C269.87,274.30 269.92,273.50 271.41,269.59 C271.96,268.17 272.49,267.09 273.01,266.35 C273.00,266.40 273.00,266.45 273.00,266.50 C273.00,267.33 273.67,268.00 274.50,268.00 C275.33,268.00 276.00,267.33 276.00,266.50 ZM 240.52 265.51 C240.19,265.65 240.00,265.82 240.00,266.00 C240.00,266.08 240.03,266.15 240.10,266.22 C240.02,266.55 240.00,266.97 240.00,267.50 C240.00,269.74 240.41,270.00 243.89,270.00 C246.52,270.00 247.98,269.49 248.39,268.42 C249.53,265.46 249.00,265.00 244.50,265.00 C244.38,265.00 244.26,265.00 244.14,265.00 L 244.14 265.00 C244.09,265.00 244.05,265.00 244.00,265.00 C243.88,265.00 243.75,265.00 243.63,265.00 C241.91,265.02 241.00,265.12 240.52,265.51 ZM 439.49 265.01 C437.71,265.03 436.83,265.15 436.40,265.62 C436.13,265.81 436.00,266.03 436.00,266.30 C436.00,266.40 436.01,266.49 436.04,266.58 C436.01,266.84 436.00,267.15 436.00,267.50 C436.00,269.74 436.41,270.00 439.89,270.00 C442.52,270.00 443.98,269.49 444.39,268.42 C445.53,265.46 445.00,265.00 440.50,265.00 C440.38,265.00 440.26,265.00 440.14,265.00 L 440.14 265.00 C440.09,265.00 440.05,265.00 440.00,265.00 C439.83,265.00 439.66,265.00 439.49,265.01 ZM 261.00 267.40 C261.00,266.92 260.98,266.53 260.90,266.22 C260.97,266.15 261.00,266.08 261.00,266.00 C261.00,265.82 260.81,265.65 260.47,265.50 C259.99,265.13 259.08,265.03 257.40,265.01 C257.27,265.00 257.14,265.00 257.00,265.00 C256.95,265.00 256.90,265.00 256.86,265.00 C256.74,265.00 256.62,265.00 256.50,265.00 C253.47,265.00 252.00,265.43 252.00,266.30 C252.00,268.52 254.05,269.80 257.60,269.80 C260.52,269.80 261.00,269.46 261.00,267.40 ZM 340.00 265.88 C340.00,265.70 339.76,265.54 339.34,265.40 C338.78,265.06 337.78,265.00 336.00,265.00 C334.19,265.00 332.92,265.29 332.35,265.68 C332.03,265.89 331.93,266.13 332.07,266.37 C332.02,266.67 332.00,267.05 332.00,267.50 C332.00,269.75 332.40,270.00 336.00,270.00 C339.60,270.00 340.00,269.75 340.00,267.50 C340.00,266.98 339.98,266.56 339.90,266.24 C339.97,266.13 340.00,266.01 340.00,265.88 ZM 380.00 265.88 C380.00,265.70 379.76,265.54 379.34,265.40 C378.79,265.06 377.79,265.00 376.00,265.00 C374.19,265.00 372.92,265.29 372.35,265.68 C372.03,265.89 371.93,266.13 372.07,266.36 C372.02,266.62 372.00,266.93 372.00,267.30 C372.00,269.29 372.56,269.64 376.00,269.85 C379.68,270.06 380.00,269.88 380.00,267.54 C380.00,267.00 379.98,266.57 379.90,266.24 C379.97,266.13 380.00,266.01 380.00,265.88 ZM 414.00 265.89 C414.00,265.71 413.75,265.54 413.31,265.40 C412.75,265.07 411.75,265.00 410.00,265.00 C407.98,265.00 406.92,265.14 406.41,265.62 C406.14,265.80 406.00,266.02 406.00,266.28 C406.00,266.34 406.01,266.40 406.02,266.46 C406.01,266.58 406.00,266.70 406.00,266.83 C406.00,269.42 406.72,269.87 410.58,269.67 C413.40,269.53 413.99,269.11 414.00,267.25 C414.00,266.79 413.97,266.42 413.88,266.12 C413.96,266.05 414.00,265.97 414.00,265.89 ZM 69.00 265.50 C70.09,264.18 69.04,264.02 60.37,264.13 L 50.50 264.26 L 57.34 265.06 C61.11,265.50 64.44,266.11 64.76,266.43 C65.79,267.46 67.73,267.03 69.00,265.50 ZM 184.00 264.00 C185.85,263.41 184.95,263.19 180.50,263.17 C176.29,263.15 175.10,263.40 176.50,264.00 C178.94,265.05 180.73,265.05 184.00,264.00 ZM 208.00 212.88 C203.77,209.95 198.00,207.58 190.41,205.51 C197.91,207.44 203.71,209.83 208.00,212.88 ZM 358.48 265.53 C357.89,265.10 356.65,265.00 354.50,265.00 L 358.91 265.00 L 358.82 265.72 C358.74,265.66 358.62,265.59 358.48,265.53 ZM 369.71 265.65 C369.31,265.08 368.19,265.00 365.57,265.00 L 370.07 265.00 L 369.96 265.86 C369.91,265.79 369.83,265.72 369.71,265.65 ZM 311.45 264.00 C310.05,264.09 309.00,264.39 309.00,264.92 L 309.00 264.00 ZM 291.45 266.25 C292.98,265.35 295.34,265.00 298.83,265.00 C297.80,265.00 296.83,265.05 295.93,265.15 C295.47,265.20 295.04,265.26 294.65,265.33 L 294.65 265.33 C293.40,265.55 292.32,265.86 291.45,266.25 ZM 180.24 202.95 C176.43,201.95 173.93,201.16 172.21,200.31 C173.99,201.10 176.57,201.95 180.24,202.95 ZM 313.58 264.00 C315.72,264.01 316.98,264.20 318.12,264.90 C317.01,264.30 315.57,264.02 313.59,264.00 ZM 144.43 202.60 C144.90,204.49 145.75,206.51 146.98,208.66 C145.65,206.35 144.86,204.53 144.43,202.60 ZM 194.33 199.95 C193.08,199.88 192.25,199.70 191.64,199.36 C192.24,199.66 193.12,199.86 194.33,199.95 ZM 309.00 264.92 C309.00,265.06 309.02,265.20 309.07,265.33 C309.02,265.62 309.00,265.98 309.00,266.42 ZM 369.89 266.36 C369.89,266.31 369.89,266.27 369.89,266.22 C369.90,266.21 369.91,266.20 369.92,266.19 Z" fill="rgb(171,205,222)"/>
<path d="M 0.00 256.00 L 0.00 0.00 L 256.00 0.00 L 512.00 0.00 L 512.00 256.00 L 512.00 512.00 L 256.00 512.00 L 0.00 512.00 L 0.00 256.00 ZM 72.42 287.75 C72.37,286.79 72.26,281.05 72.17,275.00 L 72.00 264.00 L 58.35 264.00 L 44.70 264.00 L 45.28 275.07 C45.61,281.16 46.39,286.76 47.02,287.53 C48.14,288.87 57.08,289.74 68.00,289.57 C71.63,289.51 72.48,289.16 72.42,287.75 ZM 120.90 285.60 C123.71,282.90 136.00,265.77 136.00,264.55 C136.00,264.25 128.66,264.00 119.68,264.00 L 103.37 264.00 L 98.18 274.25 C93.08,284.32 92.26,286.93 93.74,288.41 C94.15,288.82 99.75,289.01 106.18,288.83 C117.52,288.51 117.97,288.41 120.90,285.60 ZM 166.16 286.25 C171.11,280.43 173.89,279.00 180.23,279.00 C187.35,279.00 191.30,281.00 193.55,285.75 L 195.14 289.09 L 204.82 288.87 C210.14,288.74 215.06,288.22 215.75,287.70 C218.19,285.86 217.13,280.68 213.24,275.50 C210.46,271.79 207.72,269.61 202.57,267.02 C195.90,263.68 195.15,263.53 182.52,263.16 C167.78,262.73 159.88,264.16 153.03,268.48 C148.44,271.38 144.18,277.29 143.04,282.34 C141.74,288.11 142.88,288.70 155.66,288.88 C163.40,288.99 163.94,288.86 166.16,286.25 ZM 234.23 274.57 C234.64,273.98 234.98,271.56 234.98,269.19 L 235.00 264.89 L 230.76 265.19 C226.05,265.53 225.35,266.72 226.44,272.53 C227.23,276.76 231.90,277.98 234.23,274.57 ZM 247.07 275.96 C248.58,275.15 249.00,273.85 249.00,269.96 L 249.00 265.00 L 244.50 265.00 L 240.00 265.00 L 240.00 270.42 C240.00,275.69 240.61,276.73 243.82,276.92 C244.54,276.96 246.00,276.53 247.07,275.96 ZM 259.42 276.39 C260.59,275.94 261.00,274.39 261.00,270.39 L 261.00 265.00 L 256.50 265.00 L 252.00 265.00 L 252.00 269.43 C252.00,275.54 254.80,278.17 259.42,276.39 ZM 297.00 273.88 C297.00,272.35 297.75,272.00 301.00,272.00 C304.90,272.00 305.00,271.92 305.00,268.50 L 305.00 265.00 L 298.83 265.00 C291.27,265.00 289.00,266.63 289.00,272.08 C289.00,274.87 289.46,275.95 290.75,276.22 C294.09,276.91 297.00,275.82 297.00,273.88 ZM 340.51 270.95 C340.87,268.28 340.88,265.62 340.53,265.05 C340.17,264.47 338.11,264.00 335.94,264.00 L 332.00 264.00 L 332.00 269.93 C332.00,275.31 332.21,275.89 334.25,276.21 C338.74,276.91 339.81,276.02 340.51,270.95 ZM 357.61 275.67 C357.67,275.58 357.99,273.14 358.31,270.25 L 358.91 265.00 L 354.45 265.00 L 350.00 265.00 L 350.00 270.42 C350.00,273.80 350.47,276.03 351.25,276.36 C352.28,276.79 357.22,276.26 357.61,275.67 ZM 368.49 275.79 C368.62,275.63 369.03,273.14 369.40,270.25 L 370.07 265.00 L 365.53 265.00 L 361.00 265.00 L 361.00 270.42 C361.00,273.82 361.46,276.02 362.25,276.32 C363.45,276.79 367.98,276.41 368.49,275.79 ZM 378.42 276.39 C379.62,275.93 380.00,274.34 380.00,269.84 L 380.00 263.89 L 375.75 264.19 L 371.50 264.50 L 371.73 269.93 C372.01,276.36 373.85,278.14 378.42,276.39 ZM 393.62 274.16 C393.53,272.94 394.49,272.42 397.25,272.19 C400.80,271.90 401.00,271.69 401.00,268.44 L 401.00 265.00 L 395.22 265.00 C387.62,265.00 385.00,266.79 385.00,271.98 C385.00,276.15 386.09,276.90 391.12,276.18 C392.82,275.94 393.70,275.22 393.62,274.16 ZM 412.85 276.11 C413.68,275.59 414.26,273.17 414.35,269.88 L 414.50 264.50 L 410.25 264.19 L 406.00 263.89 L 406.00 269.78 C406.00,273.02 406.30,275.97 406.67,276.33 C407.60,277.27 411.24,277.14 412.85,276.11 ZM 424.89 276.09 C425.65,275.61 426.49,272.92 426.76,270.11 L 427.25 265.00 L 422.63 265.00 L 418.00 265.00 L 418.00 270.42 C418.00,273.81 418.47,276.02 419.25,276.34 C421.23,277.14 423.38,277.04 424.89,276.09 ZM 275.75 275.37 C278.25,274.70 278.54,272.85 276.90,268.15 C275.36,263.73 273.46,264.23 271.41,269.59 C269.92,273.50 269.87,274.30 271.08,275.07 C272.77,276.14 272.86,276.14 275.75,275.37 ZM 321.80 274.80 C323.68,272.92 323.23,270.42 320.41,267.08 C318.24,264.50 317.11,264.00 313.41,264.00 L 309.00 264.00 L 309.00 268.00 C309.00,271.33 309.33,272.00 311.00,272.00 C312.33,272.00 313.00,272.67 313.00,274.00 C313.00,275.65 313.67,276.00 316.80,276.00 C318.89,276.00 321.14,275.46 321.80,274.80 ZM 444.39 274.42 C444.73,273.55 445.00,271.07 445.00,268.92 L 445.00 265.00 L 440.50 265.00 L 436.00 265.00 L 436.00 270.50 L 436.00 276.00 L 439.89 276.00 C442.52,276.00 443.98,275.49 444.39,274.42 ZM 466.81 272.27 C467.28,267.40 463.47,264.00 457.55,264.00 L 453.00 264.00 L 453.00 268.00 C453.00,271.39 453.32,272.00 455.09,272.00 C456.36,272.00 457.40,272.81 457.72,274.05 C458.17,275.77 458.93,276.05 462.38,275.80 C466.22,275.52 466.52,275.28 466.81,272.27 ZM 195.12 260.58 C210.92,255.78 218.66,245.76 217.84,231.18 C217.07,217.52 208.48,209.83 188.71,205.09 C174.85,201.77 170.09,200.03 168.94,197.88 C165.30,191.08 177.63,186.25 185.49,191.40 C186.81,192.27 188.65,194.56 189.56,196.49 C191.45,200.46 191.37,200.45 206.71,199.36 L 215.72 198.72 L 214.84 194.77 C211.73,180.96 202.49,174.54 183.94,173.30 C159.48,171.67 143.98,181.34 144.01,198.22 C144.02,202.23 144.73,204.74 146.98,208.66 C151.60,216.73 158.19,220.55 175.15,225.00 C187.42,228.22 190.62,229.86 192.09,233.74 C194.56,240.24 188.43,245.53 179.31,244.78 C172.95,244.25 168.62,240.79 166.82,234.79 C165.52,230.46 165.90,230.53 150.04,231.66 L 140.77 232.32 L 141.37 236.65 C142.56,245.40 149.68,255.29 156.86,258.20 C166.25,262.02 186.29,263.26 195.12,260.58 ZM 71.79 250.11 L 72.07 239.73 L 78.13 233.11 C81.47,229.48 84.65,226.50 85.20,226.50 C85.75,226.50 90.09,234.15 94.85,243.50 L 103.50 260.50 L 118.92 260.78 C127.41,260.93 134.69,260.70 135.10,260.28 C135.52,259.85 131.93,253.20 127.13,245.50 C107.41,213.87 103.79,207.56 104.64,206.34 C105.11,205.67 111.96,198.34 119.87,190.06 L 134.23 175.00 L 116.65 175.00 L 99.06 175.00 L 89.78 185.74 C84.68,191.64 78.60,198.51 76.27,200.99 L 72.05 205.50 L 72.02 190.25 L 72.00 175.00 L 58.50 175.00 L 45.00 175.00 L 45.00 217.33 C45.00,240.62 45.31,259.98 45.70,260.36 C46.08,260.74 52.04,260.93 58.95,260.78 L 71.50 260.50 L 71.79 250.11 ZM 235.00 246.00 L 235.00 231.00 L 230.50 231.00 L 226.00 231.00 L 226.00 245.33 C226.00,253.22 226.30,259.97 226.67,260.33 C227.03,260.70 229.06,261.00 231.17,261.00 L 235.00 261.00 L 235.00 246.00 ZM 248.78 250.25 C249.01,242.16 249.37,240.00 250.50,240.00 C251.63,240.00 251.99,242.16 252.22,250.25 L 252.50 260.50 L 256.75 260.81 L 261.00 261.11 L 261.00 249.51 C261.00,233.58 259.59,231.00 250.85,231.00 C242.19,231.00 240.00,234.69 240.00,249.28 C240.00,254.99 240.32,259.99 240.71,260.38 C241.11,260.77 243.02,260.96 244.96,260.80 L 248.50 260.50 L 248.78 250.25 ZM 281.40 245.68 C284.48,238.07 287.00,231.66 287.00,231.43 C287.00,231.19 284.96,231.00 282.46,231.00 C278.09,231.00 277.85,231.15 276.16,235.14 L 274.40 239.28 L 273.16 235.14 C271.92,231.01 271.91,231.00 266.96,231.00 C264.23,231.00 262.00,231.21 262.00,231.47 C262.00,231.72 264.29,237.46 267.08,244.22 C269.88,250.97 272.60,257.59 273.12,258.91 C273.68,260.33 274.43,260.95 274.94,260.41 C275.42,259.91 278.32,253.28 281.40,245.68 ZM 305.00 256.50 L 305.00 252.00 L 300.92 252.00 C295.71,252.00 296.05,249.64 301.33,249.19 C304.63,248.91 305.00,248.59 305.00,246.00 C305.00,243.50 304.58,243.09 301.83,242.81 C297.24,242.36 296.90,240.00 301.42,240.00 L 305.00 240.00 L 305.00 235.36 L 305.00 230.72 L 298.86 231.28 C290.01,232.08 288.59,233.80 288.17,244.28 C287.99,248.80 288.32,253.76 288.91,255.30 C290.21,258.67 294.89,260.91 300.75,260.96 L 305.00 261.00 L 305.00 256.50 ZM 319.33 258.96 C322.81,256.22 323.69,251.10 321.62,245.67 C319.59,240.35 319.59,240.34 322.00,239.71 C323.59,239.29 324.00,238.35 324.00,235.09 L 324.00 231.00 L 319.92 231.00 C312.08,231.00 307.54,239.08 311.50,246.00 C313.74,249.91 313.39,252.00 310.50,252.00 C308.27,252.00 308.00,252.41 308.00,255.83 C308.00,257.94 308.30,259.97 308.67,260.33 C310.13,261.79 316.82,260.93 319.33,258.96 ZM 340.78 250.25 L 341.07 240.00 L 344.03 240.00 C346.88,240.00 347.00,239.82 347.00,235.50 L 347.00 231.00 L 336.00 231.00 L 325.00 231.00 L 325.00 235.50 C325.00,239.98 325.02,240.00 328.50,240.00 L 332.00 240.00 L 332.00 249.83 C332.00,255.24 332.32,259.99 332.71,260.38 C333.11,260.77 335.02,260.96 336.96,260.80 L 340.50 260.50 L 340.78 250.25 ZM 358.00 250.50 C358.00,241.94 358.27,240.00 359.47,240.00 C360.64,240.00 360.99,242.04 361.22,250.25 L 361.50 260.50 L 365.25 260.81 L 369.00 261.12 L 369.00 250.56 C369.00,241.84 369.26,240.00 370.50,240.00 C371.74,240.00 372.00,241.84 372.00,250.56 L 372.00 261.11 L 376.25 260.81 L 380.50 260.50 L 380.49 248.44 C380.47,233.56 379.34,231.00 372.81,231.00 C370.35,231.00 367.91,231.67 366.83,232.65 C365.13,234.19 364.87,234.19 363.17,232.65 C360.60,230.33 354.48,230.52 352.00,233.00 C350.21,234.79 350.00,236.33 350.00,248.00 L 350.00 261.00 L 354.00 261.00 L 358.00 261.00 L 358.00 250.50 ZM 401.81 256.25 L 402.11 252.00 L 398.06 252.00 C395.12,252.00 394.00,251.59 394.00,250.50 C394.00,249.45 395.06,249.00 397.50,249.00 C400.71,249.00 401.00,248.75 401.00,246.06 C401.00,243.50 400.60,243.09 397.83,242.81 C392.92,242.33 392.99,240.00 397.92,240.00 L 402.00 240.00 L 402.00 235.50 L 402.00 231.00 L 397.65 231.00 C392.12,231.00 387.24,232.69 385.98,235.04 C384.66,237.51 384.73,253.63 386.08,256.15 C387.57,258.94 392.74,261.02 397.50,260.74 C401.45,260.50 401.50,260.44 401.81,256.25 ZM 414.78 250.25 C415.01,242.16 415.37,240.00 416.50,240.00 C417.63,240.00 417.99,242.16 418.22,250.25 L 418.50 260.50 L 422.75 260.81 L 427.00 261.11 L 427.00 250.12 C427.00,234.13 425.36,231.09 416.67,231.03 C412.65,231.01 411.36,231.49 408.92,233.92 C406.03,236.81 406.00,236.98 406.00,248.26 C406.00,254.53 406.32,259.99 406.71,260.38 C407.11,260.77 409.02,260.96 410.96,260.80 L 414.50 260.50 L 414.78 250.25 ZM 444.78 250.25 L 445.07 240.00 L 448.03 240.00 C450.89,240.00 451.00,239.83 451.00,235.47 L 451.00 230.93 L 440.25 231.22 L 429.50 231.50 L 429.50 235.50 C429.50,239.28 429.68,239.52 432.75,239.81 L 436.00 240.13 L 436.00 249.90 C436.00,255.27 436.32,259.99 436.71,260.38 C437.11,260.77 439.02,260.96 440.96,260.80 L 444.50 260.50 L 444.78 250.25 ZM 464.12 258.18 C466.65,255.92 467.27,254.59 467.27,251.40 C467.27,249.21 466.53,245.99 465.62,244.23 C464.04,241.18 464.06,240.98 465.98,239.78 C467.42,238.88 468.00,237.45 468.00,234.76 C468.00,231.09 467.91,231.00 464.30,231.00 C458.95,231.00 455.00,235.01 455.01,240.44 C455.01,242.67 455.68,245.78 456.50,247.35 C458.20,250.61 457.73,252.00 454.94,252.00 C453.36,252.00 453.00,252.71 453.00,255.83 C453.00,260.51 453.44,261.00 457.65,261.00 C459.88,261.00 462.01,260.07 464.12,258.18 Z" fill="rgb(254,254,254)"/>
</g>
</svg>